<svg height="448pt" viewBox="-32 0 448 448" width="448pt" xmlns="http://www.w3.org/2000/svg"><path d="m384 386.230469v-324.460938l-176-58.664062v441.789062zm0 0"/><path d="m104 280c0 4.417969-3.582031 8-8 8s-8-3.582031-8-8 3.582031-8 8-8 8 3.582031 8 8zm0 0"/><path d="m104 344c0 4.417969-3.582031 8-8 8s-8-3.582031-8-8 3.582031-8 8-8 8 3.582031 8 8zm0 0"/><path d="m32 48h128v16h-128zm0 0"/><path d="m192 448v-448h-192v448zm-152-24h-16v-32h16zm32 0h-16v-32h16zm32 0h-16v-32h16zm-8-56c-13.253906 0-24-10.746094-24-24s10.746094-24 24-24 24 10.746094 24 24-10.746094 24-24 24zm-24-88c0-13.253906 10.746094-24 24-24s24 10.746094 24 24-10.746094 24-24 24-24-10.746094-24-24zm64 144h-16v-32h16zm32 0h-16v-32h16zm0-264h-144v-16h144zm0-32h-144v-16h144zm-152-88c0-4.417969 3.582031-8 8-8h144c4.417969 0 8 3.582031 8 8v32c0 4.417969-3.582031 8-8 8h-144c-4.417969 0-8-3.582031-8-8zm0 0"/></svg>