<svg id="Capa_1" enable-background="new 0 0 497 497" height="512" viewBox="0 0 497 497" width="512" xmlns="http://www.w3.org/2000/svg"><g><path d="m98.5 30v437c0 16.5 13.5 30 30 30l120-248.5-120-248.5c-16.5 0-30 13.5-30 30z" fill="#dae0e7"/><path d="m368.5 0-120 248.5 120 248.5c16.5 0 30-13.5 30-30v-437c0-16.5-13.5-30-30-30z" fill="#c0c8d2"/><path d="m338.5 0-90 248.5 90 248.5h30v-497z" fill="#3d5168"/><path d="m128.5 0v497h210v-317l-30-22.5 30-22.5v-30l-30-22.5 30-22.5v-60z" fill="#57697d"/><circle cx="248.5" cy="377" fill="#dae0e7" r="60"/><path d="m308.5 180-30-22.5 30-22.5h30v45z" fill="#09213d"/><path d="m158.5 135h150v45h-150z" fill="#233952"/><path d="m308.5 105-30-22.5 30-22.5h30v45z" fill="#09213d"/><path d="m158.5 60h150v45h-150z" fill="#233952"/><g fill="#85cf75"><circle cx="338.5" cy="210" r="7.5"/><circle cx="248.5" cy="377" r="30"/></g></g></svg>