<svg id="Capa_1" enable-background="new 0 0 512 512" height="512" viewBox="0 0 512 512" width="512" xmlns="http://www.w3.org/2000/svg"><g><path d="m496.496 375.861h-480.992c-8.563 0-15.504-6.941-15.504-15.504v-301.124c0-8.562 6.941-15.504 15.504-15.504h480.992c8.563 0 15.504 6.941 15.504 15.504v301.124c0 8.563-6.941 15.504-15.504 15.504z" fill="#544f57"/><path d="m496.496 43.729h-17.734c8.562 0 15.504 6.941 15.504 15.504v301.124c0 8.563-6.941 15.504-15.504 15.504h17.734c8.563 0 15.504-6.941 15.504-15.504v-301.124c0-8.562-6.941-15.504-15.504-15.504z" fill="#454045"/><path d="m33.996 286.847v-202.952c0-3.407 2.762-6.169 6.169-6.169h431.669c3.407 0 6.169 2.762 6.169 6.169v202.952c0 3.407-2.762 6.169-6.169 6.169h-431.669c-3.407 0-6.169-2.762-6.169-6.169z" fill="#b1e4f9"/><path d="m456.158 77.725v215.291h15.676c3.407 0 6.169-2.762 6.169-6.169v-202.952c0-3.407-2.762-6.169-6.169-6.169h-15.676z" fill="#90d8f9"/><path d="m374.1 460.544h-236.2l52.574-84.683h131.052z" fill="#756e78"/><path d="m335.088 397.706-13.562-21.845h-131.052l-13.562 21.845z" fill="#665e66"/><g><path d="m405.385 468.271h-298.77c-4.267 0-7.726-3.459-7.726-7.726s3.459-7.726 7.726-7.726h298.77c4.268 0 7.726 3.459 7.726 7.726s-3.458 7.726-7.726 7.726z" fill="#665e66"/></g><circle cx="256" cy="333.555" fill="#f9f6f6" r="14.644"/></g></svg>